<?xml version="1.0" encoding="utf-8"?>
<!-- Generator: Adobe Illustrator 16.0.0, SVG Export Plug-In . SVG Version: 6.00 Build 0)  -->
<!DOCTYPE svg PUBLIC "-//W3C//DTD SVG 1.1//EN" "http://www.w3.org/Graphics/SVG/1.1/DTD/svg11.dtd">
<svg version="1.1" xmlns="http://www.w3.org/2000/svg" xmlns:xlink="http://www.w3.org/1999/xlink" x="0px" y="0px" width="40.25px"
	 height="56px" viewBox="0 0 40.25 56" enable-background="new 0 0 40.25 56" xml:space="preserve">
<g id="Layer_1">
	<rect x="-59.75" y="0.188" fill="#357AE8" width="40" height="40"/>
	<rect x="-119.75" y="0.188" fill="#357AE8" width="40" height="40"/>
	<rect x="-179.75" y="0.188" fill="#357AE8" width="40" height="40"/>
	<rect x="-239.75" y="0.188" fill="#357AE8" width="40" height="40"/>
	<path fill="#FFFFFF" d="M-214.332,20.811l0.544-4.209h-4.169v-2.688c0-1.218,0.34-2.049,2.087-2.049l2.228-0.001V8.099
		c-0.385-0.051-1.706-0.166-3.247-0.166c-3.214,0-5.412,1.962-5.412,5.564v3.104h-3.635v4.209h3.635v10.8h4.345v-10.8H-214.332z"/>
	<path fill="#FFFFFF" d="M-145.458,12.861c-0.939,0.417-1.95,0.699-3.009,0.825c1.082-0.648,1.913-1.674,2.304-2.898
		c-1.011,0.6-2.132,1.037-3.325,1.271c-0.956-1.019-2.318-1.654-3.824-1.654c-2.894,0-5.239,2.346-5.239,5.238
		c0,0.411,0.046,0.81,0.136,1.193c-4.354-0.217-8.213-2.303-10.798-5.473c-0.449,0.774-0.708,1.674-0.708,2.634
		c0,1.817,0.925,3.421,2.329,4.36c-0.857-0.026-1.666-0.264-2.372-0.656v0.066c0,2.537,1.806,4.655,4.202,5.137
		c-0.439,0.119-0.904,0.185-1.38,0.185c-0.338,0-0.666-0.034-0.986-0.096c0.667,2.082,2.601,3.596,4.893,3.639
		c-1.791,1.404-4.05,2.243-6.506,2.243c-0.422,0-0.838-0.025-1.248-0.074c2.317,1.485,5.071,2.353,8.031,2.353
		c9.634,0,14.902-7.98,14.902-14.903c0-0.227-0.005-0.452-0.014-0.679C-147.049,14.835-146.162,13.913-145.458,12.861z"/>
	<path fill="#FFFFFF" d="M-108.08,9.071h17.325c1.646,0,2.991,1.347,2.991,2.993v17.325c0,1.646-1.346,2.99-2.991,2.99h-17.325
		c-1.646,0-2.993-1.345-2.993-2.99V12.063C-111.073,10.417-109.727,9.071-108.08,9.071z M-94.093,11.66
		c-0.578,0-1.05,0.474-1.05,1.051v2.51c0,0.578,0.472,1.05,1.05,1.05h2.635c0.576,0,1.049-0.472,1.049-1.05v-2.51
		c0-0.577-0.473-1.051-1.049-1.051H-94.093z M-90.398,18.927h-2.052c0.194,0.636,0.301,1.305,0.301,2.001
		c0,3.877-3.246,7.02-7.247,7.02s-7.246-3.143-7.246-7.02c0-0.696,0.106-1.366,0.3-2.001h-2.14v9.847
		c0,0.51,0.416,0.925,0.926,0.925h16.232c0.51,0,0.926-0.415,0.926-0.925V18.927z M-99.396,16.139c-2.584,0-4.681,2.03-4.681,4.537
		c0,2.504,2.097,4.536,4.681,4.536c2.586,0,4.683-2.032,4.683-4.536C-94.714,18.169-96.811,16.139-99.396,16.139z"/>
	<path fill="#FFFFFF" d="M-28.75,8.188h-21c-1.104,0-2,0.896-2,2v19c0,1.104,0.896,2,2,2h21c1.104,0,2-0.896,2-2v-19
		C-26.75,9.083-27.646,8.188-28.75,8.188z M-44.75,29.188h-4v-13h4V29.188z M-46.643,13.876c-1.328,0-2.401-1.076-2.401-2.4
		c0-1.322,1.073-2.397,2.401-2.397c1.324,0,2.399,1.075,2.399,2.397C-44.243,12.8-45.318,13.876-46.643,13.876z M-28.75,29.188h-4
		v-6.655c0-1.544-0.215-3.529-2.334-3.529c-2.154,0-2.666,1.68-2.666,3.416v6.769h-4v-13h4v1h-0.201
		c0.552-1,2.064-1.987,4.078-1.987c4.188,0,5.123,2.918,5.123,6.503V29.188z"/>
</g>
<g id="Layer_2">
	<g>
		<path fill="#357AE8" d="M40,20.062c0.25,15.375-19.625,35.75-19.625,35.75s-19-19.375-19.875-35.75
			C-0.082,9.17,9.343,0.312,20.25,0.312S39.822,9.156,40,20.062z"/>
		<ellipse fill="#FFFFFF" cx="20.319" cy="19.755" rx="0.958" ry="0.945"/>
		<ellipse fill="#FFFFFF" cx="20.319" cy="12.193" rx="0.958" ry="0.945"/>
		<ellipse fill="#FFFFFF" cx="20.319" cy="4.632" rx="0.958" ry="0.945"/>
		<path fill="#FFFFFF" d="M24.25,5.107c-0.103,0.512-0.607,0.844-1.127,0.742c-0.518-0.101-0.855-0.599-0.752-1.111
			c0.103-0.512,0.607-0.845,1.127-0.743C24.017,4.098,24.353,4.595,24.25,5.107z"/>
		<path fill="#FFFFFF" d="M27.072,6.145C26.87,6.627,26.31,6.856,25.82,6.656c-0.489-0.199-0.722-0.752-0.519-1.234
			c0.202-0.483,0.762-0.711,1.252-0.512C27.043,5.109,27.275,5.663,27.072,6.145z"/>
		<path fill="#FFFFFF" d="M29.636,7.706c-0.295,0.435-0.892,0.551-1.33,0.261c-0.439-0.29-0.559-0.877-0.265-1.311
			c0.293-0.434,0.889-0.551,1.329-0.261C29.811,6.685,29.929,7.272,29.636,7.706z"/>
		<path fill="#FFFFFF" d="M31.839,9.729c-0.375,0.37-0.98,0.369-1.355,0c-0.374-0.369-0.374-0.967,0-1.336
			c0.375-0.369,0.98-0.369,1.356,0C32.213,8.762,32.213,9.36,31.839,9.729z"/>
		<path fill="#FFFFFF" d="M33.601,12.139c-0.44,0.29-1.034,0.173-1.329-0.261c-0.294-0.434-0.175-1.021,0.265-1.311
			c0.438-0.29,1.035-0.173,1.33,0.26C34.159,11.262,34.041,11.849,33.601,12.139z"/>
		<path fill="#FFFFFF" d="M34.852,14.84c-0.489,0.2-1.049-0.029-1.252-0.512c-0.202-0.481,0.03-1.035,0.519-1.234
			c0.49-0.2,1.05,0.029,1.252,0.511C35.572,14.088,35.341,14.64,34.852,14.84z"/>
		<path fill="#FFFFFF" d="M35.546,17.731c-0.521,0.103-1.024-0.23-1.128-0.743c-0.104-0.511,0.233-1.009,0.752-1.11
			c0.52-0.102,1.024,0.23,1.127,0.742C36.4,17.131,36.062,17.629,35.546,17.731z"/>
		<ellipse fill="#FFFFFF" cx="35.652" cy="19.754" rx="0.959" ry="0.945"/>
		<path fill="#FFFFFF" d="M35.17,23.632c-0.519-0.101-0.855-0.6-0.752-1.11c0.104-0.514,0.606-0.847,1.128-0.744
			c0.518,0.102,0.854,0.6,0.751,1.113C36.194,23.401,35.689,23.733,35.17,23.632z"/>
		<path fill="#FFFFFF" d="M34.118,26.415c-0.488-0.199-0.721-0.753-0.519-1.234c0.202-0.483,0.763-0.713,1.252-0.513
			s0.722,0.754,0.519,1.235C35.168,26.385,34.607,26.614,34.118,26.415z"/>
		<path fill="#FFFFFF" d="M32.536,28.942c-0.439-0.29-0.558-0.877-0.265-1.312c0.293-0.434,0.889-0.55,1.329-0.262
			c0.44,0.292,0.559,0.877,0.266,1.312C33.571,29.115,32.975,29.232,32.536,28.942z"/>
		<path fill="#FFFFFF" d="M30.483,31.116c-0.374-0.369-0.374-0.969,0-1.338c0.375-0.367,0.98-0.367,1.356,0
			c0.373,0.369,0.373,0.968,0,1.338C31.464,31.485,30.858,31.485,30.483,31.116z"/>
		<path fill="#FFFFFF" d="M28.041,32.854c-0.294-0.435-0.175-1.021,0.265-1.312c0.438-0.289,1.035-0.173,1.33,0.261
			c0.293,0.435,0.175,1.021-0.266,1.312S28.334,33.287,28.041,32.854z"/>
		<path fill="#FFFFFF" d="M25.302,34.088c-0.203-0.482,0.029-1.035,0.519-1.235c0.488-0.199,1.05,0.029,1.252,0.512
			c0.203,0.482-0.029,1.034-0.519,1.233C26.063,34.798,25.504,34.568,25.302,34.088z"/>
		<path fill="#FFFFFF" d="M22.371,34.77c-0.104-0.511,0.234-1.008,0.752-1.11c0.519-0.102,1.024,0.23,1.127,0.742
			c0.103,0.514-0.232,1.011-0.752,1.111C22.979,35.614,22.474,35.283,22.371,34.77z"/>
		<ellipse fill="#FFFFFF" cx="20.32" cy="34.877" rx="0.958" ry="0.946"/>
		<path fill="#FFFFFF" d="M16.389,34.402c0.103-0.513,0.607-0.845,1.127-0.743c0.518,0.103,0.855,0.6,0.752,1.112
			c-0.103,0.512-0.607,0.844-1.127,0.741C16.622,35.411,16.286,34.914,16.389,34.402z"/>
		<path fill="#FFFFFF" d="M13.566,33.364c0.202-0.482,0.763-0.711,1.253-0.512c0.488,0.199,0.721,0.752,0.519,1.235
			c-0.203,0.481-0.763,0.71-1.252,0.511C13.596,34.398,13.363,33.847,13.566,33.364z"/>
		<path fill="#FFFFFF" d="M11.005,31.804c0.293-0.435,0.888-0.551,1.33-0.261c0.438,0.289,0.557,0.876,0.263,1.311
			c-0.295,0.434-0.889,0.551-1.329,0.261C10.828,32.823,10.71,32.237,11.005,31.804z"/>
		<path fill="#FFFFFF" d="M8.8,29.779c0.375-0.368,0.98-0.368,1.355,0c0.374,0.368,0.375,0.967,0,1.337
			c-0.375,0.369-0.98,0.369-1.355,0C8.426,30.746,8.426,30.147,8.8,29.779z"/>
		<path fill="#FFFFFF" d="M7.038,27.369c0.44-0.288,1.034-0.172,1.33,0.263c0.293,0.433,0.175,1.021-0.266,1.311
			c-0.438,0.29-1.035,0.174-1.328-0.261C6.479,28.246,6.598,27.659,7.038,27.369z"/>
		<path fill="#FFFFFF" d="M5.787,24.668c0.489-0.2,1.049,0.03,1.252,0.514c0.202,0.48-0.03,1.033-0.519,1.233
			c-0.49,0.199-1.051-0.029-1.252-0.512C5.066,25.422,5.299,24.867,5.787,24.668z"/>
		<path fill="#FFFFFF" d="M5.094,21.777c0.519-0.102,1.023,0.23,1.127,0.744c0.104,0.511-0.233,1.009-0.752,1.111
			c-0.521,0.102-1.023-0.231-1.128-0.742C4.238,22.376,4.576,21.879,5.094,21.777z"/>
		<ellipse fill="#FFFFFF" cx="4.986" cy="19.755" rx="0.959" ry="0.946"/>
		<path fill="#FFFFFF" d="M5.468,15.877c0.52,0.102,0.856,0.6,0.753,1.111c-0.103,0.512-0.606,0.844-1.127,0.744
			c-0.519-0.103-0.855-0.601-0.753-1.113C4.445,16.108,4.949,15.775,5.468,15.877z"/>
		<path fill="#FFFFFF" d="M6.521,13.094c0.488,0.2,0.721,0.753,0.518,1.235c-0.201,0.481-0.762,0.711-1.251,0.512
			c-0.489-0.201-0.722-0.753-0.519-1.236C5.471,13.124,6.031,12.895,6.521,13.094z"/>
		<path fill="#FFFFFF" d="M8.103,10.567c0.439,0.29,0.558,0.876,0.265,1.312c-0.293,0.434-0.889,0.55-1.329,0.26
			c-0.44-0.29-0.559-0.877-0.266-1.311C7.068,10.394,7.664,10.277,8.103,10.567z"/>
		<path fill="#FFFFFF" d="M10.155,8.394c0.374,0.369,0.374,0.966,0,1.337c-0.374,0.368-0.979,0.368-1.356-0.001
			c-0.374-0.369-0.373-0.967,0-1.336C9.176,8.024,9.781,8.024,10.155,8.394z"/>
		<path fill="#FFFFFF" d="M12.598,6.656c0.294,0.434,0.175,1.021-0.266,1.312c-0.438,0.289-1.033,0.172-1.329-0.262
			c-0.294-0.434-0.175-1.021,0.266-1.311C11.709,6.105,12.305,6.222,12.598,6.656z"/>
		<path fill="#FFFFFF" d="M15.337,5.422c0.203,0.482-0.03,1.035-0.519,1.235c-0.488,0.199-1.05-0.03-1.252-0.512
			c-0.203-0.482,0.029-1.036,0.519-1.235C14.575,4.71,15.135,4.94,15.337,5.422z"/>
		<path fill="#FFFFFF" d="M18.268,4.738c0.104,0.512-0.234,1.009-0.754,1.111c-0.517,0.103-1.022-0.23-1.126-0.742
			c-0.103-0.513,0.234-1.01,0.753-1.112C17.66,3.895,18.165,4.227,18.268,4.738z"/>
		<path fill="#FFFFFF" d="M29.128,12.403c-0.374,0.369-0.979,0.369-1.355,0c-0.374-0.37-0.374-0.968,0-1.337
			c0.376-0.369,0.981-0.369,1.355,0C29.503,11.435,29.503,12.034,29.128,12.403z"/>
		<path fill="#FFFFFF" d="M31.31,16.288c-0.488,0.199-1.049-0.029-1.251-0.512c-0.202-0.481,0.029-1.035,0.519-1.233
			c0.489-0.201,1.049,0.029,1.252,0.509C32.031,15.535,31.8,16.088,31.31,16.288z"/>
		<ellipse fill="#FFFFFF" cx="31.818" cy="19.754" rx="0.958" ry="0.945"/>
		<path fill="#FFFFFF" d="M30.577,24.968c-0.489-0.199-0.721-0.752-0.519-1.234s0.763-0.711,1.251-0.512
			c0.49,0.199,0.722,0.753,0.52,1.234C31.626,24.938,31.066,25.167,30.577,24.968z"/>
		<path fill="#FFFFFF" d="M27.772,28.443c-0.374-0.369-0.374-0.969,0-1.338c0.376-0.369,0.981-0.368,1.355,0
			c0.375,0.369,0.375,0.969,0,1.338C28.754,28.812,28.148,28.812,27.772,28.443z"/>
		<path fill="#FFFFFF" d="M24.139,13.13c-0.202,0.483-0.764,0.711-1.252,0.512c-0.489-0.2-0.722-0.753-0.519-1.235
			c0.202-0.482,0.763-0.712,1.252-0.512C24.109,12.095,24.341,12.648,24.139,13.13z"/>
		<path fill="#FFFFFF" d="M26.418,15.076c-0.375,0.369-0.98,0.369-1.355,0c-0.374-0.369-0.374-0.967,0-1.336
			c0.375-0.369,0.98-0.369,1.355,0C26.792,14.109,26.792,14.708,26.418,15.076z"/>
		<path fill="#FFFFFF" d="M27.77,17.734c-0.489,0.199-1.05-0.029-1.253-0.512c-0.203-0.483,0.03-1.035,0.52-1.235
			c0.487-0.2,1.05,0.029,1.252,0.512C28.49,16.981,28.259,17.534,27.77,17.734z"/>
		<ellipse fill="#FFFFFF" cx="27.986" cy="19.754" rx="0.958" ry="0.945"/>
		<path fill="#FFFFFF" d="M27.036,23.521c-0.489-0.2-0.723-0.753-0.52-1.235c0.202-0.482,0.764-0.711,1.253-0.512
			c0.489,0.2,0.721,0.753,0.519,1.234C28.086,23.492,27.525,23.722,27.036,23.521z"/>
		<path fill="#FFFFFF" d="M25.062,25.771c-0.374-0.369-0.374-0.968,0-1.338c0.375-0.369,0.98-0.369,1.355,0
			c0.374,0.37,0.374,0.969,0,1.338C26.044,26.139,25.438,26.139,25.062,25.771z"/>
		<path fill="#FFFFFF" d="M22.368,27.103c-0.203-0.483,0.029-1.036,0.519-1.236c0.488-0.199,1.05,0.029,1.252,0.512
			c0.202,0.483-0.029,1.036-0.519,1.235C23.131,27.813,22.57,27.584,22.368,27.103z"/>
		<ellipse fill="#FFFFFF" cx="20.32" cy="27.316" rx="0.958" ry="0.945"/>
		<path fill="#FFFFFF" d="M16.5,26.379c0.202-0.483,0.763-0.712,1.252-0.513s0.723,0.753,0.52,1.236
			c-0.203,0.481-0.763,0.711-1.253,0.511C16.529,27.414,16.298,26.861,16.5,26.379z"/>
		<path fill="#FFFFFF" d="M14.221,24.433c0.375-0.369,0.981-0.368,1.356,0c0.373,0.369,0.373,0.969,0,1.338
			c-0.375,0.368-0.981,0.368-1.356,0C13.847,25.401,13.847,24.803,14.221,24.433z"/>
		<path fill="#FFFFFF" d="M12.869,21.775c0.489-0.2,1.05,0.028,1.253,0.511s-0.03,1.035-0.52,1.236
			c-0.489,0.199-1.05-0.029-1.252-0.514C12.148,22.528,12.38,21.976,12.869,21.775z"/>
		<ellipse fill="#FFFFFF" cx="12.652" cy="19.755" rx="0.959" ry="0.946"/>
		<path fill="#FFFFFF" d="M13.603,15.988c0.489,0.2,0.723,0.752,0.52,1.236c-0.202,0.481-0.763,0.71-1.253,0.511
			c-0.489-0.2-0.721-0.753-0.519-1.235C12.553,16.017,13.113,15.788,13.603,15.988z"/>
		<path fill="#FFFFFF" d="M15.576,13.74c0.374,0.369,0.374,0.968,0.001,1.336c-0.375,0.369-0.981,0.369-1.356,0
			c-0.374-0.369-0.374-0.967,0-1.336S15.201,13.371,15.576,13.74z"/>
		<path fill="#FFFFFF" d="M18.271,12.407c0.204,0.482-0.029,1.035-0.519,1.235c-0.488,0.199-1.05-0.029-1.252-0.512
			s0.029-1.036,0.519-1.235S18.068,11.925,18.271,12.407z"/>
		<path fill="#FFFFFF" d="M23.708,17.75c-0.375,0.369-0.981,0.369-1.355,0s-0.374-0.967,0-1.336s0.98-0.369,1.355,0
			C24.081,16.782,24.081,17.38,23.708,17.75z"/>
		<ellipse fill="#FFFFFF" cx="24.152" cy="19.754" rx="0.957" ry="0.945"/>
		<path fill="#FFFFFF" d="M22.353,23.096c-0.374-0.368-0.374-0.968-0.001-1.337c0.375-0.368,0.981-0.368,1.356,0
			c0.373,0.37,0.373,0.969,0,1.337C23.333,23.465,22.727,23.465,22.353,23.096z"/>
	</g>
	<g>
	</g>
	<g>
	</g>
	<g>
	</g>
	<g>
	</g>
	<g>
	</g>
	<g>
	</g>
	<g>
	</g>
	<g>
	</g>
	<g>
	</g>
	<g>
	</g>
	<g>
	</g>
	<g>
	</g>
	<g>
	</g>
	<g>
	</g>
	<g>
	</g>
</g>
</svg>
