<?xml version="1.0" encoding="utf-8"?>
<!-- Generator: Adobe Illustrator 16.0.0, SVG Export Plug-In . SVG Version: 6.00 Build 0)  -->
<!DOCTYPE svg PUBLIC "-//W3C//DTD SVG 1.1//EN" "http://www.w3.org/Graphics/SVG/1.1/DTD/svg11.dtd">
<svg version="1.1" xmlns="http://www.w3.org/2000/svg" xmlns:xlink="http://www.w3.org/1999/xlink" x="0px" y="0px" width="800px"
	 height="400px" viewBox="0 0 800 400" enable-background="new 0 0 800 400" xml:space="preserve">
<g id="Layer_2">
</g>
<g id="Layer_1">
	<rect x="-3.5" fill="#357AE8" width="400" height="400"/>
	<ellipse fill="#FFFFFF" cx="198.569" cy="201.567" rx="8.756" ry="8.637"/>
	<ellipse fill="#FFFFFF" cx="198.569" cy="132.477" rx="8.756" ry="8.636"/>
	<ellipse fill="#FFFFFF" cx="198.569" cy="63.386" rx="8.756" ry="8.637"/>
	<path fill="#FFFFFF" d="M234.49,67.726c-0.942,4.679-5.554,7.716-10.298,6.786c-4.74-0.931-7.822-5.477-6.879-10.156
		c0.944-4.677,5.555-7.715,10.298-6.785C232.353,58.501,235.434,63.049,234.49,67.726z"/>
	<path fill="#FFFFFF" d="M260.272,77.209c-1.848,4.407-6.972,6.5-11.44,4.674c-4.466-1.825-6.587-6.876-4.737-11.284
		c1.853-4.405,6.974-6.498,11.441-4.673C260.004,67.751,262.123,72.803,260.272,77.209z"/>
	<path fill="#FFFFFF" d="M283.688,91.472c-2.685,3.967-8.124,5.032-12.146,2.382c-4.02-2.649-5.102-8.012-2.416-11.979
		c2.688-3.965,8.127-5.031,12.146-2.382C285.293,82.143,286.371,87.507,283.688,91.472z"/>
	<path fill="#FFFFFF" d="M303.828,109.965c-3.418,3.376-8.963,3.372-12.383,0c-3.417-3.372-3.42-8.84,0.001-12.214
		c3.421-3.372,8.964-3.372,12.385,0.001C307.249,101.125,307.247,106.592,303.828,109.965z"/>
	<path fill="#FFFFFF" d="M319.926,131.979c-4.02,2.653-9.457,1.583-12.146-2.383c-2.686-3.964-1.604-9.329,2.418-11.978
		c4.02-2.648,9.457-1.583,12.145,2.383C325.028,123.966,323.947,129.33,319.926,131.979z"/>
	<path fill="#FFFFFF" d="M331.359,156.666c-4.469,1.828-9.589-0.269-11.442-4.673c-1.848-4.405,0.271-9.459,4.741-11.284
		c4.469-1.823,9.589,0.27,11.438,4.676C337.947,149.79,335.829,154.84,331.359,156.666z"/>
	<path fill="#FFFFFF" d="M337.688,183.079c-4.742,0.934-9.349-2.106-10.298-6.786c-0.941-4.676,2.139-9.224,6.883-10.156
		c4.743-0.927,9.354,2.111,10.296,6.788C345.51,177.604,342.433,182.149,337.688,183.079z"/>
	<path fill="#FFFFFF" d="M338.674,210.202c-4.836,0.004-8.755-3.866-8.759-8.636c0.002-4.768,3.923-8.637,8.759-8.636
		c4.837,0.003,8.756,3.869,8.755,8.637C347.429,206.336,343.509,210.202,338.674,210.202z"/>
	<path fill="#FFFFFF" d="M334.273,236.995c-4.744-0.927-7.82-5.477-6.883-10.154c0.946-4.678,5.556-7.719,10.298-6.785
		c4.746,0.931,7.825,5.479,6.881,10.154C343.625,234.888,339.016,237.925,334.273,236.995z"/>
	<path fill="#FFFFFF" d="M324.658,262.426c-4.471-1.821-6.586-6.874-4.741-11.284c1.853-4.405,6.974-6.501,11.442-4.675
		c4.47,1.828,6.591,6.88,4.737,11.284C334.246,262.157,329.125,264.249,324.658,262.426z"/>
	<path fill="#FFFFFF" d="M310.198,285.518c-4.022-2.646-5.1-8.011-2.418-11.98c2.686-3.964,8.126-5.034,12.146-2.383
		c4.021,2.653,5.105,8.017,2.417,11.98C319.654,287.101,314.218,288.164,310.198,285.518z"/>
	<path fill="#FFFFFF" d="M291.446,305.383c-3.421-3.368-3.417-8.838,0-12.215c3.417-3.369,8.964-3.372,12.385,0
		c3.418,3.377,3.42,8.843,0,12.215C300.408,308.755,294.867,308.753,291.446,305.383z"/>
	<path fill="#FFFFFF" d="M269.128,321.259c-2.69-3.962-1.604-9.326,2.415-11.982c4.019-2.646,9.46-1.581,12.146,2.384
		c2.686,3.97,1.606,9.332-2.417,11.98C277.249,326.29,271.813,325.224,269.128,321.259z"/>
	<path fill="#FFFFFF" d="M244.096,332.535c-1.854-4.404,0.271-9.454,4.741-11.285c4.462-1.823,9.588,0.267,11.439,4.673
		c1.847,4.411-0.271,9.462-4.738,11.284C251.067,339.033,245.947,336.94,244.096,332.535z"/>
	<path fill="#FFFFFF" d="M217.316,338.777c-0.949-4.676,2.137-9.22,6.881-10.155c4.736-0.93,9.351,2.107,10.295,6.784
		c0.941,4.683-2.137,9.229-6.879,10.158C222.867,346.491,218.258,343.455,217.316,338.777z"/>
	<path fill="#FFFFFF" d="M189.814,339.75c-0.004-4.77,3.919-8.632,8.76-8.639c4.828,0,8.753,3.866,8.755,8.637
		c-0.004,4.771-3.923,8.64-8.757,8.636C193.732,348.382,189.814,344.517,189.814,339.75z"/>
	<path fill="#FFFFFF" d="M162.649,335.409c0.939-4.678,5.552-7.711,10.301-6.787c4.735,0.929,7.818,5.477,6.877,10.158
		c-0.947,4.679-5.555,7.715-10.296,6.784C164.785,344.631,161.706,340.086,162.649,335.409z"/>
	<path fill="#FFFFFF" d="M136.865,325.926c1.847-4.406,6.973-6.493,11.445-4.676c4.461,1.824,6.586,6.876,4.737,11.287
		c-1.854,4.407-6.974,6.498-11.44,4.674C137.135,335.382,135.015,330.33,136.865,325.926z"/>
	<path fill="#FFFFFF" d="M113.453,311.665c2.683-3.968,8.122-5.028,12.149-2.385c4.015,2.646,5.101,8.012,2.413,11.981
		c-2.689,3.964-8.125,5.032-12.144,2.382C111.848,320.988,110.766,315.627,113.453,311.665z"/>
	<path fill="#FFFFFF" d="M93.311,293.173c3.416-3.375,8.958-3.371,12.387,0c3.414,3.365,3.417,8.837-0.004,12.214
		c-3.421,3.37-8.965,3.371-12.381,0C89.892,302.008,89.892,296.541,93.311,293.173z"/>
	<path fill="#FFFFFF" d="M77.213,271.159c4.019-2.655,9.455-1.581,12.148,2.384c2.685,3.956,1.605,9.324-2.419,11.979
		c-4.023,2.646-9.459,1.583-12.145-2.384C72.113,279.167,73.194,273.805,77.213,271.159z"/>
	<path fill="#FFFFFF" d="M65.78,246.472c4.465-1.83,9.584,0.269,11.443,4.677c1.849,4.396-0.272,9.453-4.742,11.281
		c-4.47,1.823-9.591-0.27-11.44-4.675C59.193,253.345,61.314,248.291,65.78,246.472z"/>
	<path fill="#FFFFFF" d="M59.45,220.059c4.741-0.935,9.346,2.106,10.298,6.788c0.944,4.669-2.138,9.218-6.883,10.152
		c-4.745,0.929-9.353-2.108-10.294-6.786C51.631,225.53,54.71,220.984,59.45,220.059z"/>
	<path fill="#FFFFFF" d="M58.465,192.935c4.835-0.003,8.751,3.865,8.759,8.639c0.003,4.761-3.92,8.628-8.759,8.633
		c-4.837-0.001-8.757-3.868-8.755-8.638C49.714,196.796,53.634,192.932,58.465,192.935z"/>
	<path fill="#FFFFFF" d="M62.864,166.144c4.744,0.927,7.819,5.474,6.883,10.159c-0.939,4.669-5.551,7.707-10.298,6.782
		c-4.746-0.933-7.824-5.48-6.879-10.156C53.518,168.248,58.127,165.211,62.864,166.144z"/>
	<path fill="#FFFFFF" d="M72.479,140.712c4.469,1.822,6.586,6.875,4.74,11.287c-1.844,4.401-6.97,6.492-11.441,4.671
		c-4.471-1.829-6.589-6.88-4.738-11.284C62.896,140.978,68.019,138.886,72.479,140.712z"/>
	<path fill="#FFFFFF" d="M86.94,117.62c4.023,2.647,5.1,8.008,2.416,11.983c-2.68,3.96-8.119,5.026-12.145,2.378
		c-4.023-2.652-5.102-8.016-2.416-11.978C77.489,116.036,82.925,114.97,86.94,117.62z"/>
	<path fill="#FFFFFF" d="M105.691,97.753c3.421,3.372,3.417,8.836-0.002,12.22c-3.412,3.366-8.957,3.366-12.381-0.006
		c-3.422-3.375-3.419-8.842,0-12.212C96.733,94.383,102.277,94.383,105.691,97.753z"/>
	<path fill="#FFFFFF" d="M128.01,81.877c2.69,3.965,1.604,9.324-2.418,11.984c-4.013,2.645-9.452,1.578-12.143-2.386
		c-2.688-3.97-1.604-9.332,2.417-11.981C119.892,76.848,125.327,77.915,128.01,81.877z"/>
	<path fill="#FFFFFF" d="M153.041,70.602c1.853,4.406-0.271,9.452-4.743,11.288c-4.458,1.822-9.582-0.27-11.437-4.677
		c-1.851-4.411,0.273-9.461,4.738-11.285C146.074,64.105,151.194,66.199,153.041,70.602z"/>
	<path fill="#FFFFFF" d="M179.823,64.358c0.946,4.676-2.137,9.217-6.885,10.157c-4.732,0.93-9.346-2.109-10.293-6.787
		c-0.942-4.683,2.14-9.228,6.882-10.156C174.274,56.646,178.88,59.685,179.823,64.358z"/>
	<path fill="#FFFFFF" d="M279.062,134.394c-3.42,3.372-8.964,3.372-12.383-0.001c-3.42-3.373-3.42-8.84-0.001-12.213
		c3.42-3.373,8.965-3.373,12.381-0.001C282.482,125.551,282.481,131.02,279.062,134.394z"/>
	<path fill="#FFFFFF" d="M298.999,169.887c-4.47,1.826-9.588-0.267-11.438-4.675c-1.853-4.405,0.269-9.458,4.738-11.284
		c4.467-1.825,9.591,0.268,11.438,4.672C305.59,163.009,303.469,168.06,298.999,169.887z"/>
	<path fill="#FFFFFF" d="M303.646,210.204c-4.837,0-8.755-3.865-8.754-8.637c-0.001-4.77,3.919-8.636,8.754-8.636
		c4.838,0,8.76,3.866,8.758,8.635C312.404,206.336,308.484,210.202,303.646,210.204z"/>
	<path fill="#FFFFFF" d="M292.299,249.207c-4.471-1.826-6.591-6.877-4.738-11.284c1.85-4.406,6.971-6.496,11.438-4.673
		c4.47,1.824,6.593,6.877,4.741,11.28C301.89,248.938,296.766,251.032,292.299,249.207z"/>
	<path fill="#FFFFFF" d="M266.679,280.957c-3.421-3.374-3.419-8.841,0.001-12.212c3.418-3.375,8.963-3.372,12.38-0.002
		c3.422,3.373,3.426,8.843,0.004,12.21C275.644,284.329,270.099,284.329,266.679,280.957z"/>
	<path fill="#FFFFFF" d="M233.468,141.04c-1.852,4.408-6.975,6.5-11.441,4.675c-4.468-1.825-6.589-6.877-4.739-11.284
		c1.852-4.405,6.973-6.499,11.441-4.673C233.195,131.583,235.317,136.635,233.468,141.04z"/>
	<path fill="#FFFFFF" d="M254.297,158.82c-3.422,3.374-8.965,3.372-12.385,0s-3.42-8.841,0-12.213c3.42-3.372,8.963-3.372,12.385,0
		C257.715,149.979,257.715,155.448,254.297,158.82z"/>
	<path fill="#FFFFFF" d="M266.641,183.106c-4.469,1.826-9.59-0.266-11.442-4.674c-1.851-4.406,0.271-9.458,4.74-11.283
		c4.468-1.825,9.59,0.268,11.441,4.675C273.23,176.229,271.107,181.282,266.641,183.106z"/>
	<ellipse fill="#FFFFFF" cx="268.622" cy="201.568" rx="8.757" ry="8.636"/>
	<path fill="#FFFFFF" d="M259.938,235.987c-4.469-1.826-6.588-6.877-4.74-11.285c1.852-4.406,6.974-6.499,11.442-4.674
		c4.467,1.825,6.59,6.876,4.739,11.284C269.531,235.719,264.407,237.812,259.938,235.987z"/>
	<path fill="#FFFFFF" d="M241.914,256.531c-3.422-3.374-3.421-8.842-0.002-12.217c3.42-3.372,8.963-3.372,12.385,0
		c3.418,3.375,3.421,8.843,0,12.217C250.88,259.901,245.332,259.901,241.914,256.531z"/>
	<path fill="#FFFFFF" d="M217.289,268.705c-1.854-4.407,0.27-9.458,4.737-11.286c4.467-1.825,9.59,0.268,11.442,4.674
		c1.849,4.409-0.271,9.463-4.74,11.287C224.264,275.205,219.14,273.112,217.289,268.705z"/>
	<path fill="#FFFFFF" d="M189.814,270.661c-0.002-4.772,3.919-8.637,8.756-8.64c4.836,0,8.757,3.867,8.759,8.637
		c-0.005,4.771-3.923,8.64-8.759,8.64C193.736,279.298,189.814,275.429,189.814,270.661z"/>
	<path fill="#FFFFFF" d="M163.672,262.097c1.851-4.41,6.971-6.499,11.442-4.678c4.468,1.825,6.589,6.879,4.739,11.286
		c-1.853,4.407-6.973,6.502-11.443,4.675C163.945,271.556,161.822,266.502,163.672,262.097z"/>
	<path fill="#FFFFFF" d="M142.843,244.318c3.42-3.376,8.963-3.373,12.386-0.004c3.419,3.374,3.418,8.843-0.001,12.217
		c-3.422,3.37-8.965,3.374-12.385,0C139.425,253.16,139.425,247.689,142.843,244.318z"/>
	<path fill="#FFFFFF" d="M130.497,220.031c4.469-1.828,9.591,0.265,11.446,4.671c1.85,4.408-0.274,9.459-4.742,11.288
		c-4.47,1.821-9.592-0.266-11.442-4.678C123.91,226.91,126.031,221.857,130.497,220.031z"/>
	<path fill="#FFFFFF" d="M128.516,192.933c4.838-0.001,8.757,3.865,8.762,8.636c-0.002,4.77-3.923,8.635-8.761,8.638
		c-4.837-0.003-8.757-3.865-8.755-8.64C119.759,196.802,123.681,192.934,128.516,192.933z"/>
	<path fill="#FFFFFF" d="M137.198,167.151c4.471,1.824,6.591,6.874,4.745,11.285c-1.853,4.406-6.975,6.497-11.446,4.674
		c-4.467-1.828-6.592-6.877-4.736-11.286C127.607,167.419,132.731,165.326,137.198,167.151z"/>
	<path fill="#FFFFFF" d="M155.225,146.606c3.422,3.374,3.421,8.84,0.003,12.217c-3.419,3.372-8.964,3.37-12.387,0
		c-3.419-3.376-3.422-8.843,0.001-12.217C146.259,143.236,151.805,143.236,155.225,146.606z"/>
	<path fill="#FFFFFF" d="M179.849,134.431c1.854,4.409-0.268,9.458-4.736,11.288c-4.467,1.826-9.59-0.269-11.443-4.674
		c-1.848-4.41,0.27-9.462,4.742-11.286C172.875,127.933,177.999,130.027,179.849,134.431z"/>
	<path fill="#FFFFFF" d="M229.528,183.248c-3.42,3.372-8.965,3.372-12.382,0c-3.421-3.374-3.422-8.841,0-12.214
		c3.417-3.373,8.962-3.373,12.382,0C232.947,174.407,232.947,179.874,229.528,183.248z"/>
	<ellipse fill="#FFFFFF" cx="233.596" cy="201.568" rx="8.757" ry="8.636"/>
	<path fill="#FFFFFF" d="M217.146,232.103c-3.421-3.373-3.42-8.843-0.002-12.214c3.419-3.371,8.964-3.371,12.384,0
		c3.421,3.372,3.421,8.841,0,12.214C226.11,235.474,220.563,235.474,217.146,232.103z"/>
</g>
<g id="Layer_3">
	<g>
		<path fill="#357AE8" d="M483.768,183.659c-0.477,0.578-0.936,1.037-1.377,1.377c-0.441,0.34-1.07,0.51-1.887,0.51
			c-0.782,0-1.487-0.187-2.116-0.561c-0.63-0.374-1.335-0.791-2.116-1.25c-0.783-0.459-1.701-0.875-2.755-1.25
			c-1.054-0.374-2.363-0.561-3.927-0.561c-1.938,0-3.613,0.357-5.023,1.071c-1.411,0.714-2.575,1.734-3.493,3.06
			c-0.918,1.326-1.599,2.95-2.04,4.87c-0.442,1.921-0.663,4.089-0.663,6.503c0,5.067,0.977,8.959,2.933,11.678
			c1.954,2.721,4.648,4.08,8.083,4.08c1.836,0,3.29-0.229,4.36-0.688c1.071-0.459,1.98-0.97,2.729-1.53
			c0.748-0.562,1.437-1.079,2.065-1.556c0.629-0.476,1.42-0.714,2.372-0.714c1.258,0,2.21,0.459,2.855,1.377l4.591,5.661
			c-1.633,1.87-3.35,3.391-5.151,4.564c-1.803,1.173-3.646,2.091-5.533,2.754c-1.888,0.663-3.783,1.122-5.687,1.377
			c-1.905,0.255-3.758,0.383-5.56,0.383c-3.23,0-6.315-0.612-9.256-1.836c-2.941-1.225-5.526-3-7.752-5.33
			c-2.228-2.328-3.996-5.193-5.305-8.594c-1.309-3.398-1.963-7.275-1.963-11.627c0-3.808,0.568-7.37,1.708-10.685
			c1.139-3.315,2.822-6.188,5.049-8.619c2.227-2.431,4.98-4.343,8.263-5.737c3.28-1.394,7.08-2.091,11.398-2.091
			c4.147,0,7.785,0.663,10.914,1.989c3.127,1.326,5.949,3.264,8.466,5.814L483.768,183.659z"/>
		<path fill="#357AE8" d="M495.191,224v-52.887h9.384c0.782,0,1.437,0.069,1.964,0.204c0.526,0.136,0.969,0.349,1.326,0.638
			c0.356,0.289,0.628,0.672,0.815,1.147c0.187,0.477,0.349,1.054,0.484,1.734l0.867,4.947c1.938-2.992,4.113-5.355,6.528-7.089
			c2.413-1.734,5.049-2.601,7.904-2.601c2.414,0,4.353,0.579,5.814,1.734l-2.04,11.628c-0.137,0.714-0.408,1.216-0.816,1.504
			c-0.407,0.289-0.952,0.434-1.632,0.434c-0.578,0-1.258-0.077-2.04-0.229s-1.768-0.229-2.958-0.229c-4.148,0-7.412,2.21-9.792,6.63
			V224H495.191z"/>
		<path fill="#357AE8" d="M559.96,170.297c3.502,0,6.707,0.544,9.614,1.632c2.906,1.088,5.405,2.669,7.496,4.743
			c2.092,2.074,3.724,4.616,4.896,7.625c1.173,3.009,1.76,6.418,1.76,10.226c0,1.19-0.052,2.16-0.153,2.907
			c-0.102,0.748-0.289,1.343-0.561,1.785c-0.272,0.442-0.638,0.749-1.097,0.918c-0.459,0.171-1.046,0.255-1.76,0.255h-30.498
			c0.51,4.419,1.853,7.625,4.029,9.613c2.175,1.989,4.98,2.984,8.415,2.984c1.836,0,3.417-0.221,4.743-0.664
			c1.325-0.441,2.507-0.934,3.544-1.479c1.037-0.543,1.989-1.037,2.856-1.479c0.866-0.441,1.776-0.663,2.729-0.663
			c1.257,0,2.209,0.459,2.855,1.377l4.59,5.661c-1.632,1.87-3.392,3.391-5.278,4.564c-1.887,1.173-3.825,2.091-5.813,2.754
			c-1.989,0.663-3.979,1.122-5.968,1.377c-1.988,0.255-3.885,0.383-5.687,0.383c-3.706,0-7.183-0.604-10.429-1.811
			c-3.248-1.207-6.087-3-8.518-5.381c-2.431-2.379-4.353-5.338-5.763-8.874c-1.411-3.536-2.116-7.649-2.116-12.342
			c0-3.536,0.603-6.885,1.811-10.047c1.206-3.162,2.94-5.933,5.201-8.313c2.261-2.379,4.998-4.266,8.212-5.661
			C552.285,170.994,555.914,170.297,559.96,170.297z M560.267,181.211c-3.026,0-5.39,0.859-7.089,2.576
			c-1.701,1.717-2.823,4.19-3.366,7.42h19.736c0-1.257-0.161-2.481-0.484-3.672c-0.323-1.19-0.85-2.252-1.581-3.188
			c-0.731-0.935-1.691-1.691-2.881-2.27C563.411,181.5,561.966,181.211,560.267,181.211z"/>
		<path fill="#357AE8" d="M629.319,224c-1.496,0-2.626-0.204-3.392-0.611c-0.765-0.408-1.402-1.258-1.912-2.551l-1.122-2.906
			c-1.326,1.121-2.601,2.107-3.825,2.957c-1.224,0.851-2.491,1.573-3.799,2.168c-1.31,0.596-2.703,1.037-4.183,1.326
			c-1.479,0.288-3.119,0.434-4.921,0.434c-2.415,0-4.608-0.316-6.579-0.947c-1.973-0.631-3.646-1.561-5.023-2.788
			s-2.44-2.755-3.188-4.579c-0.749-1.825-1.122-3.932-1.122-6.318c0-1.877,0.476-3.805,1.428-5.783
			c0.951-1.978,2.601-3.777,4.947-5.397c2.346-1.62,5.508-2.976,9.485-4.067c3.979-1.092,8.993-1.638,15.045-1.638v-2.265
			c0-3.122-0.637-5.379-1.912-6.769s-3.086-2.084-5.432-2.084c-1.87,0-3.4,0.204-4.59,0.612c-1.19,0.408-2.253,0.867-3.188,1.377
			c-0.936,0.51-1.845,0.969-2.729,1.377c-0.885,0.408-1.938,0.612-3.162,0.612c-1.089,0-2.015-0.263-2.779-0.791
			c-0.765-0.527-1.369-1.181-1.811-1.964l-2.856-4.947c3.196-2.822,6.74-4.921,10.634-6.298c3.893-1.377,8.066-2.066,12.521-2.066
			c3.195,0,6.077,0.519,8.645,1.556c2.566,1.038,4.743,2.482,6.528,4.335c1.785,1.854,3.153,4.055,4.105,6.604
			c0.951,2.55,1.428,5.338,1.428,8.364V224H629.319z M611.164,214.361c2.039,0,3.824-0.357,5.354-1.071s3.077-1.87,4.641-3.468
			v-7.242c-3.161,0-5.763,0.207-7.803,0.617c-2.04,0.412-3.655,0.926-4.845,1.544c-1.19,0.618-2.015,1.32-2.474,2.109
			c-0.459,0.788-0.688,1.646-0.688,2.571c0,1.818,0.492,3.096,1.479,3.833S609.259,214.361,611.164,214.361z"/>
		<path fill="#357AE8" d="M684.908,224c-0.986,0-1.811-0.221-2.474-0.663c-0.663-0.441-1.131-1.104-1.402-1.989l-1.224-4.029
			c-1.055,1.123-2.16,2.143-3.315,3.061c-1.156,0.918-2.406,1.709-3.748,2.371c-1.344,0.664-2.789,1.174-4.336,1.53
			c-1.547,0.357-3.222,0.536-5.023,0.536c-2.754,0-5.304-0.612-7.649-1.836c-2.346-1.225-4.369-2.992-6.069-5.305
			c-1.7-2.312-3.034-5.143-4.003-8.491c-0.97-3.349-1.454-7.165-1.454-11.45c0-3.943,0.544-7.607,1.632-10.99
			c1.088-3.383,2.627-6.307,4.616-8.772c1.988-2.465,4.377-4.394,7.165-5.789c2.787-1.394,5.865-2.091,9.231-2.091
			c2.72,0,5.023,0.4,6.91,1.199c1.887,0.799,3.596,1.845,5.126,3.137v-26.775h15.81V224H684.908z M668.895,212.678
			c1.155,0,2.2-0.109,3.136-0.331c0.936-0.221,1.793-0.536,2.576-0.944c0.781-0.407,1.521-0.918,2.218-1.529
			s1.386-1.326,2.066-2.143v-22.439c-1.225-1.326-2.525-2.252-3.902-2.779c-1.377-0.527-2.83-0.791-4.36-0.791
			c-1.462,0-2.805,0.289-4.028,0.867c-1.225,0.579-2.287,1.504-3.188,2.78c-0.901,1.275-1.607,2.932-2.117,4.972
			s-0.765,4.506-0.765,7.395c0,2.789,0.204,5.134,0.612,7.039c0.407,1.904,0.977,3.441,1.708,4.615
			c0.73,1.173,1.606,2.014,2.627,2.524C666.497,212.423,667.636,212.678,668.895,212.678z"/>
		<path fill="#357AE8" d="M743.455,224c-1.496,0-2.626-0.204-3.392-0.611c-0.765-0.408-1.402-1.258-1.912-2.551l-1.122-2.906
			c-1.326,1.121-2.601,2.107-3.825,2.957c-1.224,0.851-2.491,1.573-3.799,2.168c-1.31,0.596-2.703,1.037-4.183,1.326
			c-1.479,0.288-3.119,0.434-4.921,0.434c-2.415,0-4.608-0.316-6.579-0.947c-1.973-0.631-3.646-1.561-5.023-2.788
			s-2.44-2.755-3.188-4.579c-0.749-1.825-1.122-3.932-1.122-6.318c0-1.877,0.476-3.805,1.428-5.783
			c0.951-1.978,2.601-3.777,4.947-5.397c2.346-1.62,5.508-2.976,9.485-4.067c3.979-1.092,8.993-1.638,15.045-1.638v-2.265
			c0-3.122-0.637-5.379-1.912-6.769s-3.086-2.084-5.432-2.084c-1.87,0-3.4,0.204-4.59,0.612c-1.19,0.408-2.253,0.867-3.188,1.377
			c-0.936,0.51-1.845,0.969-2.729,1.377c-0.885,0.408-1.938,0.612-3.162,0.612c-1.089,0-2.015-0.263-2.779-0.791
			c-0.765-0.527-1.369-1.181-1.811-1.964l-2.856-4.947c3.196-2.822,6.74-4.921,10.634-6.298c3.893-1.377,8.066-2.066,12.521-2.066
			c3.195,0,6.077,0.519,8.645,1.556c2.566,1.038,4.743,2.482,6.528,4.335c1.785,1.854,3.153,4.055,4.105,6.604
			c0.951,2.55,1.428,5.338,1.428,8.364V224H743.455z M725.3,214.361c2.039,0,3.824-0.357,5.354-1.071s3.077-1.87,4.641-3.468v-7.242
			c-3.161,0-5.763,0.207-7.803,0.617c-2.04,0.412-3.655,0.926-4.845,1.544c-1.19,0.618-2.015,1.32-2.474,2.109
			c-0.459,0.788-0.688,1.646-0.688,2.571c0,1.818,0.492,3.096,1.479,3.833S723.395,214.361,725.3,214.361z"/>
		<path fill="#357AE8" d="M761.916,224v-52.887h9.384c0.782,0,1.437,0.069,1.964,0.204c0.526,0.136,0.969,0.349,1.326,0.638
			c0.356,0.289,0.628,0.672,0.815,1.147c0.187,0.477,0.349,1.054,0.484,1.734l0.867,4.947c1.938-2.992,4.113-5.355,6.528-7.089
			c2.413-1.734,5.049-2.601,7.904-2.601c2.414,0,4.353,0.579,5.814,1.734l-2.04,11.628c-0.137,0.714-0.408,1.216-0.816,1.504
			c-0.407,0.289-0.952,0.434-1.632,0.434c-0.578,0-1.258-0.077-2.04-0.229s-1.768-0.229-2.958-0.229c-4.148,0-7.412,2.21-9.792,6.63
			V224H761.916z"/>
	</g>
	<g>
	</g>
	<g>
	</g>
	<g>
	</g>
	<g>
	</g>
	<g>
	</g>
	<g>
	</g>
	<g>
	</g>
	<g>
	</g>
	<g>
	</g>
	<g>
	</g>
	<g>
	</g>
	<g>
	</g>
	<g>
	</g>
	<g>
	</g>
	<g>
	</g>
</g>
</svg>
